<svg width="18" height="18" viewBox="0 0 18 18" fill="none" xmlns="http://www.w3.org/2000/svg">
<path d="M17.0441 4.95028C17.0105 4.88344 16.9517 4.8327 16.8807 4.8092C16.8097 4.7857 16.7322 4.79138 16.6654 4.82498C16.5985 4.85859 16.5478 4.91736 16.5243 4.98838C16.5008 5.0594 16.5065 5.13685 16.5401 5.20368C17.4143 6.94245 17.6614 8.92978 17.2394 10.8297C16.8174 12.7295 15.7523 14.4254 14.2241 15.6306C12.696 16.8358 10.7986 17.4763 8.85265 17.4438C6.90673 17.4114 5.03171 16.708 3.54459 15.4525H4.81162C4.8863 15.4525 4.95791 15.4229 5.01072 15.3701C5.06352 15.3173 5.09318 15.2456 5.09318 15.171C5.09318 15.0963 5.06352 15.0247 5.01072 14.9719C4.95791 14.9191 4.8863 14.8894 4.81162 14.8894H2.81957C2.80133 14.8873 2.78291 14.8873 2.76467 14.8894H2.74214L2.71258 14.8979L2.68583 14.9119C2.67803 14.9156 2.6705 14.9199 2.66331 14.9246C2.63248 14.9449 2.60613 14.9712 2.58588 15.002C2.58158 15.0088 2.57781 15.0158 2.57461 15.0232C2.56881 15.0319 2.56408 15.0414 2.56054 15.0513C2.55641 15.0604 2.55311 15.0698 2.55068 15.0795C2.55068 15.0879 2.55068 15.095 2.54364 15.1034C2.54226 15.1217 2.54226 15.14 2.54364 15.1583V17.1602C2.54364 17.2349 2.57331 17.3065 2.62611 17.3593C2.67891 17.4121 2.75053 17.4418 2.8252 17.4418C2.89988 17.4418 2.97149 17.4121 3.0243 17.3593C3.0771 17.3065 3.10677 17.2349 3.10677 17.1602V15.8129C4.68453 17.1736 6.6851 17.9455 8.76793 17.9971C10.8508 18.0487 12.8871 17.3769 14.5303 16.096C16.1736 14.8151 17.3221 13.0044 17.7804 10.9719C18.2387 8.93949 17.9785 6.81103 17.0441 4.94887V4.95028Z" fill="white"/>
<path d="M3.02932 3.01607C4.52756 1.52212 6.53138 0.64406 8.64532 0.555187C10.7593 0.466314 12.8297 1.17309 14.4481 2.53601H13.181C13.1064 2.53601 13.0347 2.56568 12.9819 2.61848C12.9291 2.67128 12.8995 2.7429 12.8995 2.81757C12.8995 2.89225 12.9291 2.96386 12.9819 3.01667C13.0347 3.06947 13.1064 3.09914 13.181 3.09914H15.1703C15.189 3.10129 15.2079 3.10129 15.2266 3.09914H15.2491L15.2787 3.09069L15.304 3.07661C15.312 3.07323 15.3195 3.06898 15.3265 3.06394C15.3577 3.04359 15.3845 3.01727 15.4054 2.98651L15.4166 2.96539L15.4307 2.93724C15.4344 2.92812 15.4372 2.9187 15.4392 2.90908L15.4476 2.88515C15.449 2.86687 15.449 2.84852 15.4476 2.83024V0.829746C15.4476 0.755071 15.4179 0.683455 15.3651 0.630652C15.3123 0.577849 15.2407 0.548184 15.166 0.548184C15.0914 0.548184 15.0198 0.577849 14.9669 0.630652C14.9141 0.683455 14.8845 0.755071 14.8845 0.829746V2.17843C13.3074 0.82233 11.3098 0.0536086 9.23052 0.00270103C7.15123 -0.0482065 5.11836 0.621835 3.47686 1.89913C1.83535 3.17643 0.686311 4.98231 0.224706 7.01035C-0.236899 9.0384 0.0173637 11.1637 0.94435 13.0256C0.96766 13.0725 1.00359 13.112 1.04811 13.1396C1.09263 13.1672 1.14397 13.1818 1.19635 13.1819C1.23984 13.1818 1.28272 13.1717 1.32164 13.1523C1.35478 13.1357 1.38432 13.1127 1.40856 13.0847C1.43281 13.0567 1.45128 13.0241 1.46292 12.989C1.47456 12.9538 1.47914 12.9166 1.4764 12.8797C1.47365 12.8427 1.46364 12.8067 1.44694 12.7736C0.650946 11.1874 0.375398 9.39064 0.659489 7.63883C0.94358 5.88702 1.77284 4.2694 3.02932 3.01607V3.01607Z" fill="white"/>
<path d="M12.4504 9.05954C12.6531 9.13064 12.8662 9.16728 13.0811 9.16794C13.5327 9.1639 13.9702 9.00934 14.3242 8.7287C14.9112 8.27679 15.2603 7.57148 15.2111 6.93234C15.1769 6.56275 15.0625 6.20505 14.8761 5.88413C14.6896 5.56321 14.4354 5.28676 14.1313 5.07403C13.6569 4.74319 12.8417 4.4208 11.6479 4.76149C9.646 5.33447 9.22788 7.19278 9.13778 7.94877C9.1054 7.94877 9.07161 7.94877 9.03783 7.94033C8.4747 7.31526 8.5831 6.90699 9.05894 5.54705C9.16644 5.23218 9.19247 4.89523 9.13463 4.56759C9.07678 4.23994 8.93693 3.93228 8.72811 3.67326C8.27902 3.08198 7.57371 2.73002 6.93456 2.78071C6.56497 2.81492 6.20728 2.92924 5.88635 3.11571C5.56543 3.30219 5.28899 3.55634 5.07625 3.86049C4.74542 4.33493 4.42303 5.15005 4.76372 6.34387C5.3367 8.34718 7.19782 8.7639 7.95241 8.854C7.95241 8.88638 7.95241 8.91875 7.94396 8.95254C7.31889 9.51567 6.91063 9.40867 5.54364 8.93283C5.22878 8.82534 4.89182 8.7993 4.56418 8.85715C4.23654 8.915 3.92887 9.05485 3.66985 9.26367C3.08279 9.71558 2.73366 10.4209 2.78293 11.06C2.81714 11.4296 2.93146 11.7873 3.11794 12.1082C3.30441 12.4292 3.55857 12.7056 3.86272 12.9183C4.30459 13.2222 4.83004 13.3811 5.36626 13.3731C5.69971 13.3724 6.03143 13.325 6.35173 13.2323C8.35222 12.6551 8.76753 10.7897 8.85622 10.0366C8.88719 10.0366 8.91957 10.0366 8.95195 10.045C9.51507 10.6729 9.4123 11.0797 8.93506 12.4481C8.82756 12.763 8.80153 13.1 8.85938 13.4276C8.91722 13.7552 9.05707 14.0629 9.26589 14.3219C9.4611 14.5863 9.71299 14.8037 10.0031 14.9582C10.2932 15.1126 10.6142 15.2002 10.9426 15.2145C10.9825 15.2166 11.0224 15.2166 11.0623 15.2145C11.4318 15.1803 11.7895 15.0659 12.1105 14.8795C12.4314 14.693 12.7078 14.4388 12.9206 14.1347C13.2514 13.6603 13.5738 12.8451 13.2331 11.6513C12.6573 9.64096 10.7962 9.22566 10.0402 9.13556C10.0402 9.10318 10.0402 9.0708 10.05 9.03701C10.6765 8.4767 11.0834 8.5837 12.4504 9.05954V9.05954ZM11.8028 5.3035C12.5785 5.08107 13.2725 5.16272 13.8103 5.53579C14.0469 5.70008 14.245 5.91384 14.3909 6.16227C14.5367 6.4107 14.6269 6.68787 14.655 6.97457C14.6888 7.42366 14.4199 7.94877 13.9849 8.28242C13.7999 8.4343 13.5792 8.5365 13.3437 8.57937C13.1082 8.62223 12.8657 8.60434 12.639 8.52738C11.3903 8.09237 10.7005 7.85586 9.89941 8.44151C9.84191 8.34874 9.77071 8.26521 9.68824 8.19373C9.70091 7.78547 9.90363 5.84691 11.8028 5.3035V5.3035ZM8.997 8.50064C9.09445 8.50036 9.1898 8.52898 9.27098 8.58289C9.35217 8.6368 9.41554 8.71358 9.45309 8.80351C9.49064 8.89344 9.50068 8.99248 9.48194 9.08811C9.46321 9.18375 9.41653 9.27168 9.34782 9.34079C9.2791 9.40989 9.19144 9.45707 9.09592 9.47636C9.00039 9.49564 8.90129 9.48617 8.81115 9.44913C8.72101 9.41209 8.64387 9.34916 8.5895 9.26829C8.53512 9.18741 8.50595 9.09223 8.50567 8.99478C8.5053 8.93002 8.51774 8.86583 8.54226 8.80589C8.56679 8.74595 8.60292 8.69146 8.64858 8.64554C8.69424 8.59961 8.74853 8.56317 8.80833 8.5383C8.86812 8.51344 8.93224 8.50063 8.997 8.50064V8.50064ZM5.30572 6.18901C5.08329 5.41331 5.16494 4.71926 5.53801 4.18148C5.7023 3.94483 5.91606 3.74673 6.1645 3.60088C6.41293 3.45503 6.69009 3.36492 6.97679 3.33679C7.42448 3.303 7.951 3.57189 8.28465 4.00691C8.43653 4.19191 8.53873 4.41259 8.58159 4.64809C8.62445 4.88358 8.60656 5.12612 8.52961 5.35277C8.09459 6.6015 7.85808 7.29133 8.44373 8.09237C8.35065 8.14944 8.26705 8.22068 8.19596 8.30354C7.78628 8.29087 5.84914 8.08815 5.30572 6.18901ZM6.19124 12.6861C5.41553 12.9085 4.72148 12.8268 4.1837 12.4538C3.94706 12.2895 3.74895 12.0757 3.6031 11.8273C3.45725 11.5789 3.36714 11.3017 3.33901 11.015C3.30523 10.5659 3.57412 10.0408 4.00913 9.70713C4.19414 9.55525 4.41482 9.45305 4.65031 9.41019C4.88581 9.36733 5.12834 9.38522 5.355 9.46217C6.60513 9.89718 7.29496 10.1351 8.09741 9.54664C8.15389 9.63849 8.22417 9.72111 8.30577 9.7916C8.2931 10.1914 8.096 12.1412 6.19124 12.6861V12.6861ZM12.6883 11.8005C12.9107 12.5762 12.8291 13.2703 12.456 13.8081C12.2917 14.0447 12.0779 14.2428 11.8295 14.3887C11.5811 14.5345 11.3039 14.6246 11.0172 14.6528C10.5695 14.6866 10.043 14.4177 9.70935 13.9826C9.55747 13.7976 9.45527 13.577 9.41241 13.3415C9.36955 13.106 9.38744 12.8634 9.46439 12.6368C9.89941 11.3866 10.1373 10.6968 9.54886 9.89437C9.64071 9.83788 9.72333 9.76761 9.79382 9.68601C10.1922 9.69868 12.1435 9.89296 12.6883 11.8005V11.8005Z" fill="white"/>
</svg>
