<svg width="30" height="30" viewBox="0 0 30 30" fill="none" xmlns="http://www.w3.org/2000/svg">
<path d="M20 15C20 14.0111 19.7068 13.0444 19.1574 12.2222C18.6079 11.3999 17.8271 10.759 16.9134 10.3806C15.9998 10.0022 14.9945 9.90315 14.0246 10.0961C13.0546 10.289 12.1637 10.7652 11.4645 11.4645C10.7652 12.1637 10.289 13.0546 10.0961 14.0246C9.90315 14.9945 10.0022 15.9998 10.3806 16.9134C10.759 17.8271 11.3999 18.6079 12.2222 19.1574C13.0444 19.7068 14.0111 20 15 20C16.3256 19.9985 17.5965 19.4712 18.5339 18.5339C19.4712 17.5965 19.9985 16.3256 20 15V15ZM12 15C12 14.4067 12.1759 13.8266 12.5056 13.3333C12.8352 12.8399 13.3038 12.4554 13.852 12.2284C14.4001 12.0013 15.0033 11.9419 15.5853 12.0576C16.1672 12.1734 16.7018 12.4591 17.1213 12.8787C17.5409 13.2982 17.8266 13.8328 17.9424 14.4147C18.0581 14.9967 17.9987 15.5999 17.7716 16.1481C17.5446 16.6962 17.1601 17.1648 16.6667 17.4944C16.1734 17.8241 15.5933 18 15 18C14.2046 17.9991 13.4421 17.6827 12.8797 17.1203C12.3173 16.5579 12.0009 15.7954 12 15V15Z" fill="white"/>
<path d="M9 23.8743L14.3317 30H15.6683L21 23.8743V22H9V23.8743ZM18.2391 24L15 27.7215L11.7609 24H18.2391Z" fill="white"/>
<path d="M14.3317 0L9 6.12575V8H21V6.12575L15.6683 0H14.3317ZM11.7609 6L15 2.2785L18.2391 6H11.7609Z" fill="white"/>
<path d="M0 14.3317V15.6683L6.12581 21H8V9H6.12581L0 14.3317ZM6 18.2391L2.27844 15L6 11.7609V18.2391Z" fill="white"/>
<path d="M23.8742 9H22V21H23.8742L30 15.6683V14.3317L23.8742 9ZM24 18.2391V11.7609L27.7216 15L24 18.2391Z" fill="white"/>
</svg>
