<svg width="15" height="20" viewBox="0 0 15 20" fill="none" xmlns="http://www.w3.org/2000/svg">
<path d="M6.23009 2.12389V11.1765H5.9823V2.12389C5.9823 2.05547 6.03777 2 6.10619 2C6.17462 2 6.23009 2.05547 6.23009 2.12389Z" fill="white" stroke="black" stroke-width="2.12389"/>
<ellipse cx="6.10621" cy="15.6469" rx="4.9115" ry="4.35294" fill="black"/>
<ellipse cx="6.10615" cy="15.6471" rx="3.84956" ry="3.41176" fill="white"/>
<ellipse cx="6.10621" cy="15.6469" rx="2.78761" ry="2.47059" fill="#2F8CCA"/>
<rect x="5.04419" y="1.17627" width="2.12389" height="12" rx="1.06195" fill="white"/>
<rect x="5.5752" y="6.35303" width="1.06195" height="7.29412" fill="#2F8CCA"/>
<rect y="1.64697" width="3.18584" height="0.470588" fill="#2F8CCA"/>
<rect x="1.06189" y="3.08252" width="2.12389" height="0.470588" fill="#2F8CCA"/>
<rect x="1.06189" y="5.90576" width="2.12389" height="0.470588" fill="#2F8CCA"/>
<rect x="1.06189" y="8.72949" width="2.12389" height="0.470588" fill="#2F8CCA"/>
<rect y="4.49414" width="3.18584" height="0.470588" fill="#2F8CCA"/>
<rect y="7.31787" width="3.18584" height="0.470588" fill="#2F8CCA"/>
<rect y="10.1411" width="3.18584" height="0.470588" fill="#2F8CCA"/>
<path d="M11.6748 9.99803L9.8143 5.99237C9.72194 5.79352 9.86713 5.56599 10.0864 5.56599L13.8074 5.56599C14.0267 5.56599 14.1719 5.79352 14.0795 5.99237L12.219 9.99803C12.1115 10.2295 11.7823 10.2295 11.6748 9.99803Z" fill="#2F8CCA" stroke="black" stroke-width="0.4"/>
<path d="M11.8274 1.84697H12.0889C12.5308 1.84697 12.8889 2.20514 12.8889 2.64697V5.64697C12.8889 6.0888 12.5308 6.44697 12.0889 6.44697H11.8274C11.3856 6.44697 11.0274 6.0888 11.0274 5.64697V2.64697C11.0274 2.20514 11.3856 1.84697 11.8274 1.84697Z" fill="#2F8CCA" stroke="black" stroke-width="0.4"/>
<rect x="11.25" y="4" width="1.45" height="3" rx="0.725" fill="#2F8CCA"/>
<rect x="10.5" y="5.77002" width="3" height="1" fill="#2F8CCA"/>
</svg>
