<svg width="15" height="20" viewBox="0 0 15 20" fill="none" xmlns="http://www.w3.org/2000/svg">
<path d="M6.23009 2.12389V11.1765H5.9823V2.12389C5.9823 2.05547 6.03777 2 6.10619 2C6.17462 2 6.23009 2.05547 6.23009 2.12389Z" fill="white" stroke="black" stroke-width="2.12389"/>
<ellipse cx="6.10621" cy="15.6469" rx="4.9115" ry="4.35294" fill="black"/>
<ellipse cx="6.10615" cy="15.6471" rx="3.84956" ry="3.41176" fill="white"/>
<ellipse cx="6.10621" cy="15.6469" rx="2.78761" ry="2.47059" fill="#F5777E"/>
<rect x="5.04419" y="1.17627" width="2.12389" height="12" rx="1.06195" fill="white"/>
<rect x="5.5752" y="6.35303" width="1.06195" height="7.29412" fill="#F5777E"/>
<rect y="1.64697" width="3.18584" height="0.470588" fill="#F5777E"/>
<rect x="1.06189" y="3.08252" width="2.12389" height="0.470588" fill="#F5777E"/>
<rect x="1.06189" y="5.90576" width="2.12389" height="0.470588" fill="#F5777E"/>
<rect x="1.06189" y="8.72949" width="2.12389" height="0.470588" fill="#F5777E"/>
<rect y="4.49414" width="3.18584" height="0.470588" fill="#F5777E"/>
<rect y="7.31787" width="3.18584" height="0.470588" fill="#F5777E"/>
<rect y="10.1411" width="3.18584" height="0.470588" fill="#F5777E"/>
<path d="M12.219 2.70754L14.0795 6.7132C14.1719 6.91205 14.0267 7.13957 13.8074 7.13957L10.0864 7.13957C9.86712 7.13957 9.72193 6.91205 9.81429 6.7132L11.6748 2.70754C11.7823 2.47604 12.1115 2.47604 12.219 2.70754Z" fill="#F5777E" stroke="black" stroke-width="0.4"/>
<path d="M12.0664 10.8586H11.8049C11.363 10.8586 11.0049 10.5004 11.0049 10.0586V7.05859C11.0049 6.61677 11.363 6.25859 11.8049 6.25859H12.0664C12.5082 6.25859 12.8664 6.61677 12.8664 7.05859V10.0586C12.8664 10.5004 12.5082 10.8586 12.0664 10.8586Z" fill="#F5777E" stroke="black" stroke-width="0.4"/>
<rect x="12.6438" y="8.70557" width="1.45" height="3" rx="0.725" transform="rotate(-180 12.6438 8.70557)" fill="#F5777E"/>
<rect x="13.3938" y="6.93555" width="3" height="1" transform="rotate(-180 13.3938 6.93555)" fill="#F5777E"/>
</svg>
