<svg width="14" height="20" viewBox="0 0 14 20" fill="none" xmlns="http://www.w3.org/2000/svg">
<g clip-path="url(#clip0_1016_899)">
<path d="M6.99998 1.02734C3.10398 6.5467 0.599976 9.9963 0.599976 13.3462C0.599976 16.6962 3.46398 19.4252 6.99998 19.4252C10.536 19.4252 13.4 16.7038 13.4 13.3462C13.4 9.98863 10.896 6.53903 6.99998 1.02734V1.02734Z" stroke="#16BDF2" stroke-miterlimit="10"/>
</g>
<path d="M4.03207 9.76C4.28807 9.53003 4.64807 9.41504 5.12807 9.41504C5.60807 9.41504 5.96807 9.53003 6.21607 9.76C6.46407 9.98997 6.60007 10.2966 6.60007 10.7106V11.3238C6.60965 11.4963 6.5811 11.6687 6.51631 11.8299C6.45151 11.9911 6.35193 12.1373 6.22407 12.259C5.96807 12.489 5.60007 12.604 5.12807 12.604C4.65607 12.604 4.28807 12.4813 4.03207 12.2514C3.77607 12.0214 3.64807 11.7148 3.64807 11.3161V10.7029C3.64807 10.2966 3.77607 9.98231 4.03207 9.75233V9.76ZM9.72807 9.63735C9.75207 9.69867 9.73607 9.76766 9.68007 9.83666L5.44007 15.4557C5.36007 15.5707 5.28007 15.6396 5.21607 15.6703C5.15207 15.701 5.03207 15.7163 4.84807 15.7163H4.50407C4.39207 15.7163 4.32807 15.6856 4.30407 15.632C4.28007 15.5783 4.28807 15.5017 4.35207 15.4173L8.59207 9.79833C8.67207 9.68334 8.73607 9.62202 8.80007 9.59135C8.86407 9.56835 8.98407 9.55302 9.15207 9.55302H9.53607C9.64007 9.55302 9.69607 9.58369 9.72807 9.63735V9.63735ZM5.12807 10.2199C4.71207 10.2199 4.51207 10.3963 4.51207 10.7565V11.2702C4.51207 11.6228 4.71207 11.8068 5.12807 11.8068C5.54407 11.8068 5.73607 11.6228 5.73607 11.2702V10.7489C5.73607 10.3963 5.53607 10.2199 5.12807 10.2199ZM7.80007 13.0103C8.04807 12.7803 8.41607 12.6653 8.88807 12.6653C9.36007 12.6653 9.72807 12.7803 9.98407 13.0103C10.2401 13.2403 10.3681 13.5546 10.3681 13.9608V14.5741C10.3681 14.9804 10.2401 15.287 9.98407 15.517C9.72807 15.747 9.36807 15.8543 8.88807 15.8543C8.40807 15.8543 8.04807 15.7393 7.80007 15.517C7.54407 15.287 7.41607 14.9804 7.41607 14.5818V13.9685C7.41607 13.5546 7.54407 13.2403 7.80007 13.0103ZM8.88807 13.4702C8.48807 13.4702 8.28007 13.6542 8.28007 14.0068V14.5204C8.28007 14.8731 8.48007 15.057 8.88807 15.057C9.29607 15.057 9.50407 14.8731 9.50407 14.5204V14.0068C9.50407 13.6542 9.30407 13.4702 8.88807 13.4702Z" fill="#16BDF2"/>
<defs>
<clipPath id="clip0_1016_899">
<rect width="14" height="20" fill="white"/>
</clipPath>
</defs>
</svg>
