<svg width="20" height="20" viewBox="0 0 20 20" fill="none" xmlns="http://www.w3.org/2000/svg">
<path d="M11.6198 0.712959C11.9228 0.380762 12.3208 0.150065 12.7597 0.0523041C13.1986 -0.045457 13.6569 -0.0055271 14.0722 0.166653C14.4876 0.338833 14.8397 0.634888 15.0807 1.01447C15.3217 1.39406 15.4398 1.83872 15.4189 2.28785C15.4035 2.59306 15.4523 2.8981 15.5621 3.18329C15.672 3.46847 15.8404 3.72747 16.0564 3.94356C16.2725 4.15965 16.5315 4.32803 16.8167 4.43785C17.1019 4.54767 17.4069 4.59647 17.7121 4.58112C18.1613 4.56021 18.6059 4.6783 18.9855 4.91928C19.3651 5.16026 19.6612 5.51242 19.8333 5.92776C20.0055 6.34311 20.0455 6.80144 19.9477 7.2403C19.8499 7.67917 19.6192 8.07722 19.287 8.38021C19.0605 8.58486 18.8794 8.83476 18.7554 9.11377C18.6314 9.39278 18.5674 9.69469 18.5674 10C18.5674 10.3053 18.6314 10.6072 18.7554 10.8862C18.8794 11.1652 19.0605 11.4151 19.287 11.6198C19.6192 11.9228 19.8499 12.3208 19.9477 12.7597C20.0455 13.1986 20.0055 13.6569 19.8333 14.0722C19.6612 14.4876 19.3651 14.8397 18.9855 15.0807C18.6059 15.3217 18.1613 15.4398 17.7121 15.4189C17.4069 15.4035 17.1019 15.4523 16.8167 15.5622C16.5315 15.672 16.2725 15.8404 16.0564 16.0564C15.8404 16.2725 15.672 16.5315 15.5621 16.8167C15.4523 17.1019 15.4035 17.4069 15.4189 17.7121C15.4398 18.1613 15.3217 18.6059 15.0807 18.9855C14.8397 19.3651 14.4876 19.6612 14.0722 19.8333C13.6569 20.0055 13.1986 20.0455 12.7597 19.9477C12.3208 19.8499 11.9228 19.6192 11.6198 19.287C11.4151 19.0605 11.1652 18.8794 10.8862 18.7554C10.6072 18.6314 10.3053 18.5674 10 18.5674C9.69469 18.5674 9.39278 18.6314 9.11377 18.7554C8.83476 18.8794 8.58486 19.0605 8.38021 19.287C8.07722 19.6192 7.67917 19.8499 7.2403 19.9477C6.80144 20.0455 6.34311 20.0055 5.92776 19.8333C5.51242 19.6612 5.16026 19.3651 4.91928 18.9855C4.6783 18.6059 4.56021 18.1613 4.58112 17.7121C4.59647 17.4069 4.54767 17.1019 4.43785 16.8167C4.32803 16.5315 4.15965 16.2725 3.94356 16.0564C3.72747 15.8404 3.46847 15.672 3.18329 15.5622C2.8981 15.4523 2.59306 15.4035 2.28785 15.4189C1.83872 15.4398 1.39406 15.3217 1.01447 15.0807C0.634888 14.8397 0.338833 14.4876 0.166653 14.0722C-0.00552704 13.6569 -0.0454571 13.1986 0.0523041 12.7597C0.150065 12.3208 0.380762 11.9228 0.712959 11.6198C0.939525 11.4151 1.12064 11.1652 1.2446 10.8862C1.36856 10.6072 1.43261 10.3053 1.43261 10C1.43261 9.69469 1.36856 9.39278 1.2446 9.11377C1.12064 8.83476 0.939525 8.58486 0.712959 8.38021C0.380762 8.07722 0.150065 7.67917 0.0523041 7.2403C-0.0454571 6.80144 -0.00552704 6.34311 0.166653 5.92776C0.338833 5.51242 0.634888 5.16026 1.01447 4.91928C1.39406 4.6783 1.83872 4.56021 2.28785 4.58112C2.59278 4.59597 2.89744 4.5468 3.18221 4.43676C3.46698 4.32672 3.72555 4.15826 3.94126 3.94222C4.15697 3.72618 4.32504 3.46736 4.43465 3.18243C4.54426 2.89749 4.59298 2.59276 4.57767 2.28785C4.55676 1.83872 4.67484 1.39406 4.91582 1.01447C5.15681 0.634888 5.50896 0.338833 5.92431 0.166653C6.33965 -0.0055271 6.79799 -0.045457 7.23685 0.0523041C7.67571 0.150065 8.07376 0.380762 8.37675 0.712959C8.58142 0.940089 8.83153 1.12169 9.11086 1.24599C9.3902 1.37029 9.69253 1.43452 9.99827 1.43452C10.304 1.43452 10.6063 1.37029 10.8857 1.24599C11.165 1.12169 11.4151 0.940089 11.6198 0.712959V0.712959Z" fill="#FF927D"/>
<path d="M10 17.6016C14.1964 17.6016 17.5982 14.1998 17.5982 10.0034C17.5982 5.80709 14.1964 2.40527 10 2.40527C5.80367 2.40527 2.40186 5.80709 2.40186 10.0034C2.40186 14.1998 5.80367 17.6016 10 17.6016Z" fill="#FFF35F" stroke="#54596E" stroke-width="1.61462" stroke-linecap="round" stroke-linejoin="round"/>
<path opacity="0.15" d="M10 15.5293C8.16462 15.529 6.39139 14.8642 5.00802 13.658C3.62465 12.4518 2.72467 10.7855 2.47438 8.96729C2.42741 9.31068 2.40318 9.65681 2.40186 10.0034C2.40186 12.0186 3.20238 13.9512 4.62731 15.3761C6.05224 16.8011 7.98487 17.6016 10 17.6016C12.0152 17.6016 13.9478 16.8011 15.3727 15.3761C16.7977 13.9512 17.5982 12.0186 17.5982 10.0034C17.5969 9.65681 17.5726 9.31068 17.5257 8.96729C17.2754 10.7855 16.3754 12.4518 14.992 13.658C13.6087 14.8642 11.8354 15.529 10 15.5293Z" fill="#54596E"/>
<path d="M6.201 7.58608C6.58248 7.58608 6.89174 7.27682 6.89174 6.89533C6.89174 6.51385 6.58248 6.20459 6.201 6.20459C5.81951 6.20459 5.51025 6.51385 5.51025 6.89533C5.51025 7.27682 5.81951 7.58608 6.201 7.58608Z" fill="#54596E"/>
<path d="M13.7991 7.58608C14.1806 7.58608 14.4899 7.27682 14.4899 6.89533C14.4899 6.51385 14.1806 6.20459 13.7991 6.20459C13.4177 6.20459 13.1084 6.51385 13.1084 6.89533C13.1084 7.27682 13.4177 7.58608 13.7991 7.58608Z" fill="#54596E"/>
<path d="M12.4176 9.72015C12.4176 9.17792 7.5824 9.17792 7.5824 9.72015C7.5824 10.6457 8.66341 11.3848 10 11.3848C11.3366 11.3848 12.4176 10.6457 12.4176 9.73051V9.72015Z" fill="#54596E"/>
<path d="M9.99998 10.6942C10.5722 10.6942 11.0361 10.5395 11.0361 10.3488C11.0361 10.158 10.5722 10.0034 9.99998 10.0034C9.42775 10.0034 8.96387 10.158 8.96387 10.3488C8.96387 10.5395 9.42775 10.6942 9.99998 10.6942Z" fill="#FF927D"/>
</svg>
