<svg width="22" height="20" viewBox="0 0 22 20" fill="none" xmlns="http://www.w3.org/2000/svg">
<path d="M1 11.2197H5" stroke="#21825B" stroke-linecap="round" stroke-linejoin="round"/>
<path d="M16 11.2197H21" stroke="#21825B" stroke-linecap="round" stroke-linejoin="round"/>
<path d="M2 19.2299L2.01 19.2188" stroke="#21825B" stroke-linecap="round" stroke-linejoin="round"/>
<path d="M5 15.2298L5.01 15.2188" stroke="#21825B" stroke-linecap="round" stroke-linejoin="round"/>
<path d="M8 19.2299L8.01 19.2188" stroke="#21825B" stroke-linecap="round" stroke-linejoin="round"/>
<path d="M11 15.2298L11.01 15.2188" stroke="#21825B" stroke-linecap="round" stroke-linejoin="round"/>
<path d="M14 19.2299L14.01 19.2188" stroke="#21825B" stroke-linecap="round" stroke-linejoin="round"/>
<path d="M17 15.2298L17.01 15.2188" stroke="#21825B" stroke-linecap="round" stroke-linejoin="round"/>
<path d="M20 19.2299L20.01 19.2188" stroke="#21825B" stroke-linecap="round" stroke-linejoin="round"/>
<path d="M8 12.2197C8 12.2197 8.9 8.47855 11 6.21973" stroke="#21825B" stroke-linecap="round" stroke-linejoin="round"/>
<path d="M15.1857 1.46097L15.5601 5.35023C15.8031 7.87328 13.9114 10.1197 11.3883 10.3626C8.91261 10.601 6.66995 8.79149 6.43157 6.31584C6.19319 3.84019 8.00686 1.64004 10.4826 1.40167L14.6293 1.00238C14.9096 0.975394 15.1587 1.18071 15.1857 1.46097Z" stroke="#21825B" stroke-linecap="round" stroke-linejoin="round"/>
</svg>
