<svg width="30" height="30" viewBox="0 0 30 30" fill="none" xmlns="http://www.w3.org/2000/svg">
<path d="M10.3125 22.5H19.6875V24.375H10.3125V22.5Z" fill="white"/>
<path d="M12.1875 26.25H17.8125V28.125H12.1875V26.25Z" fill="white"/>
<path d="M10.1386 17.0068C9.26058 16.337 8.56071 15.4617 8.10059 14.4578C7.64047 13.4539 7.43422 12.3523 7.49998 11.25C7.50226 9.26158 8.29317 7.35525 9.6992 5.94922C11.1052 4.54319 13.0116 3.75228 15 3.75V1.875C12.5144 1.87775 10.1315 2.86636 8.3739 4.62392C6.61634 6.38147 5.62774 8.76444 5.62498 11.25C5.56134 12.612 5.82225 13.9697 6.38621 15.2111C6.95018 16.4525 7.80105 17.5421 8.86873 18.3902C9.8172 19.2664 10.3125 19.7639 10.3125 20.625H12.1875C12.1875 18.9 11.1461 17.9379 10.1386 17.0068V17.0068Z" fill="white"/>
<path d="M19.6875 8.99063L16.3219 5.625L15 6.94687L19.6875 11.6344L28.125 3.19688L26.8031 1.875L19.6875 8.99063Z" fill="white"/>
<path d="M22.3125 13.125C21.9668 14.6648 21.0982 16.0372 19.8545 17.0087C18.8502 17.9389 17.8125 18.901 17.8125 20.625H19.6875C19.6875 19.7631 20.181 19.2656 21.1268 18.3884C22.7704 17.0737 23.8728 15.2002 24.224 13.125H22.3125Z" fill="white"/>
</svg>
