<svg width="20" height="20" viewBox="0 0 14 20" fill="none" xmlns="http://www.w3.org/2000/svg">
    <g filter="url(#filter0_d_1016_878)">
    <path d="M12.4584 2.69903V8.81081H11.0603V2.69902C11.0603 2.31296 11.3733 2 11.7593 2C12.1454 2 12.4584 2.31296 12.4584 2.69903Z" fill="white" stroke="black" stroke-width="2.69903"/>
    <ellipse cx="11.7593" cy="15" rx="6.24096" ry="5" fill="black"/>
    <ellipse cx="11.7594" cy="15" rx="4.89157" ry="3.91892" fill="white"/>
    <ellipse cx="11.7594" cy="14.9999" rx="3.54247" ry="2.83784" fill="black"/>
    <rect x="10.4097" y="1.08105" width="2.69903" height="11.0811" rx="1.34951" fill="white"/>
    <rect x="11.0844" y="4.32422" width="1.34951" height="8.37838" fill="black"/>
    <rect x="5.34949" y="3.81104" width="2.69903" height="0.540541" fill="white"/>
    <rect x="5.34949" y="7.05371" width="2.69903" height="0.540541" fill="white"/>
    <rect x="4" y="2.18945" width="4.04854" height="0.540541" fill="white"/>
    <rect x="4" y="5.43262" width="4.04854" height="0.540541" fill="white"/>
    <rect x="4" y="8.67529" width="4.04854" height="0.540541" fill="white"/>
    </g>
    <defs>
    <filter id="filter0_d_1016_878" x="0" y="0" width="20" height="20" filterUnits="userSpaceOnUse" color-interpolation-filters="sRGB">
    <feFlood flood-opacity="0" result="BackgroundImageFix"/>
    <feColorMatrix in="SourceAlpha" type="matrix" values="0 0 0 0 0 0 0 0 0 0 0 0 0 0 0 0 0 0 127 0" result="hardAlpha"/>
    <feOffset dy="4"/>
    <feGaussianBlur stdDeviation="2"/>
    <feComposite in2="hardAlpha" operator="out"/>
    <feColorMatrix type="matrix" values="0 0 0 0 0 0 0 0 0 0 0 0 0 0 0 0 0 0 0.25 0"/>
    <feBlend mode="normal" in2="BackgroundImageFix" result="effect1_dropShadow_1016_878"/>
    <feBlend mode="normal" in="SourceGraphic" in2="effect1_dropShadow_1016_878" result="shape"/>
    </filter>
    </defs>
</svg>
