<svg width="14" height="20" viewBox="0 0 14 20" fill="none" xmlns="http://www.w3.org/2000/svg">
<path d="M5.81104 2.01575V11.1765H5.77954V2.01575C5.77954 2.0121 5.77987 2.01054 5.77989 2.01046L5.77989 2.01045L5.77996 2.01023C5.78014 2.00979 5.78127 2.00749 5.78415 2.00461C5.78703 2.00173 5.78934 2.0006 5.78977 2.00042L5.79 2.00035C5.79003 2.00034 5.79157 2 5.79529 2C5.799 2 5.80055 2.00034 5.80058 2.00035L5.80081 2.00042C5.80124 2.0006 5.80355 2.00173 5.80642 2.00461C5.8093 2.00749 5.81044 2.0098 5.81062 2.01023L5.81069 2.01045C5.81069 2.01049 5.81104 2.01203 5.81104 2.01575Z" fill="white" stroke="black" stroke-width="2.01575"/>
<ellipse cx="5.79533" cy="15.6469" rx="4.66142" ry="4.35294" fill="black"/>
<ellipse cx="5.79527" cy="15.6471" rx="3.65354" ry="3.41176" fill="white"/>
<ellipse cx="5.79533" cy="15.6473" rx="2.64567" ry="2.47059" fill="black"/>
<rect x="4.78735" y="1.17676" width="2.01575" height="12" rx="1.00787" fill="white"/>
<rect x="5.29126" y="6.35303" width="1.00787" height="7.29412" fill="black"/>
<rect y="1.64697" width="3.02362" height="0.470588" fill="white"/>
<rect x="1.00793" y="3.08252" width="2.01575" height="0.470588" fill="white"/>
<rect x="1.00793" y="5.90576" width="2.01575" height="0.470588" fill="white"/>
<rect x="1.00793" y="8.72949" width="2.01575" height="0.470588" fill="white"/>
<rect y="4.49414" width="3.02362" height="0.470588" fill="white"/>
<rect y="7.31738" width="3.02362" height="0.470588" fill="white"/>
<rect y="10.1411" width="3.02362" height="0.470588" fill="white"/>
<rect x="10.4724" y="1.44678" width="1.51181" height="5.17647" fill="#F5777E"/>
<rect x="8.45679" y="4.74121" width="1.41176" height="5.54331" transform="rotate(-90 8.45679 4.74121)" fill="#F5777E"/>
<rect x="8.45679" y="9.65869" width="5.54331" height="1.41176" fill="#2F8CCA"/>
</svg>
